<?xml version="1.0" encoding="UTF-8"?>
<!-- Generator: visioncortex VTracer 0.6.4 -->
<svg version="1.1" xmlns="http://www.w3.org/2000/svg" width="18" height="18">
<path d="M0 0 C0.33 0.66 0.66 1.32 1 2 C2.98 1.34 4.96 0.68 7 0 C5.68 3.63 4.36 7.26 3 11 C3.66 11 4.32 11 5 11 C6.46 13.65 7 14.89 7 18 C5.68 18 4.36 18 3 18 C3 17.01 3 16.02 3 15 C1.05 15.19 1.05 15.19 -0.94 15.38 C-1.67 15.44 -2.4 15.51 -3.15 15.59 C-3.76 15.72 -4.37 15.86 -5 16 C-5.33 16.66 -5.66 17.32 -6 18 C-6.99 18 -7.98 18 -9 18 C-9 17.34 -9 16.68 -9 16 C-9.66 16 -10.32 16 -11 16 C-11 15.34 -11 14.68 -11 14 C-8.03 13.34 -5.06 12.68 -2 12 C-6.46 11.01 -6.46 11.01 -11 10 C-11 7.69 -11 5.38 -11 3 C-7.33 1.82 -3.83 1.93 0 2 C0 1.34 0 0.68 0 0 Z M1 11 C1 11.66 1 12.32 1 13 C1.66 12.67 2.32 12.34 3 12 C2.34 11.67 1.68 11.34 1 11 Z " fill="#767373" transform="translate(11,0)"/>
<path d="M0 0 C0.33 0.66 0.66 1.32 1 2 C2.98 1.34 4.96 0.68 7 0 C6.58 1.48 6.14 2.96 5.69 4.44 C5.32 5.67 5.32 5.67 4.95 6.93 C4.48 7.96 4.48 7.96 4 9 C1.12 9.96 -0.7 10.11 -3.69 10.06 C-4.9 10.05 -4.9 10.05 -6.14 10.04 C-7.06 10.02 -7.06 10.02 -8 10 C-8.33 9.01 -8.66 8.02 -9 7 C-6.35 5.23 -4.97 4.69 -2 4 C-1.67 3.67 -1.34 3.34 -1 3 C-2.98 3 -4.96 3 -7 3 C-7 2.67 -7 2.34 -7 2 C-4.69 2 -2.38 2 0 2 C0 1.34 0 0.68 0 0 Z " fill="#7A7677" transform="translate(11,0)"/>
<path d="M0 0 C0.33 0.66 0.66 1.32 1 2 C2.98 1.34 4.96 0.68 7 0 C6.34 1.65 5.68 3.3 5 5 C3.02 5 1.04 5 -1 5 C-1 4.34 -1 3.68 -1 3 C-2.98 3 -4.96 3 -7 3 C-7 2.67 -7 2.34 -7 2 C-4.69 2 -2.38 2 0 2 C0 1.34 0 0.68 0 0 Z " fill="#8F8D8E" transform="translate(11,0)"/>
<path d="M0 0 C0.66 0 1.32 0 2 0 C1.67 0.99 1.34 1.98 1 3 C-0.65 3.7 -2.32 4.37 -4 5 C-4.33 5.66 -4.66 6.32 -5 7 C-5.99 7 -6.98 7 -8 7 C-8 6.34 -8 5.68 -8 5 C-8.66 5 -9.32 5 -10 5 C-10 4.34 -10 3.68 -10 3 C-6.7 2.67 -3.4 2.34 0 2 C0 1.34 0 0.68 0 0 Z " fill="#7D7B7D" transform="translate(10,11)"/>
<path d="M0 0 C2.31 0.02 2.31 0.02 5 0.38 C5.89 0.49 6.77 0.6 7.69 0.71 C8.45 0.81 9.21 0.9 10 1 C10.66 1 11.32 1 12 1 C12 1.66 12 2.32 12 3 C7.05 4.6 2.87 3.28 -2 2 C-1.34 1.34 -0.68 0.68 0 0 Z " fill="#6C6869" transform="translate(2,8)"/>
<path d="M0 0 C3.63 0 7.26 0 11 0 C11 0.99 11 1.98 11 3 C7.7 3 4.4 3 1 3 C0.67 2.01 0.34 1.02 0 0 Z " fill="#8F8D8E" transform="translate(2,7)"/>
</svg>
